<svg xmlns="http://www.w3.org/2000/svg" xmlns:xlink="http://www.w3.org/1999/xlink" width="719pt" height="208" viewBox="0 0 718.51 155.98"><g id="graph0" class="graph" transform="scale(1 1) rotate(0) translate(4 151.9754)"><title>g</title><polygon fill="#fff" stroke="transparent" points="-4 4 -4 -151.975 714.514 -151.975 714.514 4 -4 4"/><g id="node1" class="node"><title>s0</title><ellipse cx="50.205" cy="-106.975" fill="#00f" stroke="#00f" rx="50.41" ry="21.951"/><text x="50.205" y="-109.714" fill="#fff" font-family="Inconsolata" font-size="11" text-anchor="middle">iterable-0</text><text x="50.205" y="-98.175" fill="#fff" font-family="Inconsolata" font-size="11" text-anchor="middle">(Stream)</text></g><g id="node2" class="node"><title>s1</title><ellipse cx="215.999" cy="-129.975" fill="#000" stroke="#000" rx="27" ry="18"/><text x="215.999" y="-126.945" fill="#fff" font-family="Inconsolata" font-size="11" text-anchor="middle">x10</text></g><g id="edge5" class="edge"><title>s0-&gt;s1</title><path fill="none" stroke="#000" d="M98.1592,-113.628C123.9845,-117.2106 155.348,-121.5615 179.2239,-124.8737"/><polygon fill="#000" stroke="#000" points="178.903 -128.363 189.289 -126.27 179.865 -121.429 178.903 -128.363"/><text x="132.159" y="-121.714" fill="#000" font-family="Inconsolata" font-size="11" text-anchor="middle">xform</text></g><g id="node3" class="node"><title>s2</title><ellipse cx="215.999" cy="-75.975" fill="#000" stroke="#000" rx="52.18" ry="18"/><text x="215.999" y="-72.945" fill="#fff" font-family="Inconsolata" font-size="11" text-anchor="middle">in-iterable-0</text></g><g id="edge6" class="edge"><title>s0-&gt;s2</title><path fill="none" stroke="#000" d="M96.3876,-98.3402C116.1494,-94.6451 139.3996,-90.2978 160.1209,-86.4234"/><polygon fill="#000" stroke="#000" points="160.877 -89.843 170.064 -84.564 159.591 -82.962 160.877 -89.843"/></g><g id="node4" class="node"><title>s3</title><ellipse cx="334.259" cy="-75.975" fill="silver" stroke="silver" rx="29.342" ry="18"/><text x="334.259" y="-72.945" fill="#fff" font-family="Inconsolata" font-size="11" text-anchor="middle">&lt;noid&gt;</text></g><g id="edge4" class="edge"><title>s2-&gt;s3</title><path fill="none" stroke="#000" d="M268.2139,-75.9754C277.1877,-75.9754 286.3771,-75.9754 294.9397,-75.9754"/><polygon fill="#000" stroke="#000" points="295.017 -79.475 305.017 -75.975 295.017 -72.475 295.017 -79.475"/></g><g id="node5" class="node"><title>s4</title><ellipse cx="462.301" cy="-47.975" fill="red" stroke="red" rx="61.744" ry="21.951"/><text x="462.301" y="-50.714" fill="#fff" font-family="Inconsolata" font-size="11" text-anchor="middle">streammerge-0</text><text x="462.301" y="-39.175" fill="#fff" font-family="Inconsolata" font-size="11" text-anchor="middle">(StreamMerge)</text></g><g id="edge3" class="edge"><title>s3-&gt;s4</title><path fill="none" stroke="#000" d="M362.0424,-69.8998C373.1199,-67.4774 386.3557,-64.583 399.5214,-61.704"/><polygon fill="#000" stroke="#000" points="400.517 -65.069 409.539 -59.513 399.022 -58.231 400.517 -65.069"/></g><g id="node6" class="node"><title>s5</title><ellipse cx="588.173" cy="-47.975" fill="#000" stroke="#000" rx="27" ry="18"/><text x="588.173" y="-44.945" fill="#fff" font-family="Inconsolata" font-size="11" text-anchor="middle">sub-1</text></g><g id="edge2" class="edge"><title>s4-&gt;s5</title><path fill="none" stroke="#000" d="M524.4997,-47.9754C533.558,-47.9754 542.6367,-47.9754 550.9851,-47.9754"/><polygon fill="#000" stroke="#000" points="551.112 -51.475 561.112 -47.975 551.112 -44.475 551.112 -51.475"/></g><g id="node7" class="node"><title>s6</title><ellipse cx="681.343" cy="-47.975" fill="silver" stroke="silver" rx="29.342" ry="18"/><text x="681.343" y="-44.945" fill="#fff" font-family="Inconsolata" font-size="11" text-anchor="middle">&lt;noid&gt;</text></g><g id="edge1" class="edge"><title>s5-&gt;s6</title><path fill="none" stroke="#000" d="M615.6234,-47.9754C623.8797,-47.9754 633.1065,-47.9754 641.9757,-47.9754"/><polygon fill="#000" stroke="#000" points="642.143 -51.475 652.143 -47.975 642.143 -44.475 642.143 -51.475"/></g><g id="node8" class="node"><title>s7</title><ellipse cx="50.205" cy="-21.975" fill="#00f" stroke="#00f" rx="50.41" ry="21.951"/><text x="50.205" y="-24.714" fill="#fff" font-family="Inconsolata" font-size="11" text-anchor="middle">iterable-1</text><text x="50.205" y="-13.175" fill="#fff" font-family="Inconsolata" font-size="11" text-anchor="middle">(Stream)</text></g><g id="node9" class="node"><title>s8</title><ellipse cx="215.999" cy="-21.975" fill="#000" stroke="#000" rx="52.18" ry="18"/><text x="215.999" y="-18.945" fill="#fff" font-family="Inconsolata" font-size="11" text-anchor="middle">in-iterable-1</text></g><g id="edge9" class="edge"><title>s7-&gt;s8</title><path fill="none" stroke="#000" d="M100.8492,-21.9754C117.4867,-21.9754 136.1777,-21.9754 153.5835,-21.9754"/><polygon fill="#000" stroke="#000" points="153.658 -25.476 163.658 -21.975 153.658 -18.476 153.658 -25.476"/></g><g id="node10" class="node"><title>s9</title><ellipse cx="334.259" cy="-21.975" fill="silver" stroke="silver" rx="29.342" ry="18"/><text x="334.259" y="-18.945" fill="#fff" font-family="Inconsolata" font-size="11" text-anchor="middle">&lt;noid&gt;</text></g><g id="edge8" class="edge"><title>s8-&gt;s9</title><path fill="none" stroke="#000" d="M268.2139,-21.9754C277.1877,-21.9754 286.3771,-21.9754 294.9397,-21.9754"/><polygon fill="#000" stroke="#000" points="295.017 -25.476 305.017 -21.975 295.017 -18.476 295.017 -25.476"/></g><g id="edge7" class="edge"><title>s9-&gt;s4</title><path fill="none" stroke="#000" d="M362.0424,-27.617C372.8854,-29.8188 385.7964,-32.4405 398.6854,-35.0577"/><polygon fill="#000" stroke="#000" points="398.006 -38.491 408.503 -37.051 399.399 -31.631 398.006 -38.491"/></g></g></svg>