<svg xmlns="http://www.w3.org/2000/svg" xmlns:xlink="http://www.w3.org/1999/xlink" width="1597pt" height="463pt" viewBox="0 0 1597.33 462.98"><g id="graph0" class="graph" transform="scale(1 1) rotate(0) translate(4 458.9754)"><title>g</title><polygon fill="#fff" stroke="transparent" points="-4 4 -4 -458.975 1593.326 -458.975 1593.326 4 -4 4"/><g id="node1" class="node"><title>s0</title><ellipse cx="42.426" cy="-21.975" fill="#00f" stroke="#00f" rx="42.353" ry="21.951"/><text x="42.426" y="-24.714" fill="#fff" font-family="Inconsolata" font-size="11" text-anchor="middle">S</text><text x="42.426" y="-13.175" fill="#fff" font-family="Inconsolata" font-size="11" text-anchor="middle">(Stream)</text></g><g id="node2" class="node"><title>s1</title><ellipse cx="42.426" cy="-306.975" fill="#00f" stroke="#00f" rx="42.353" ry="21.951"/><text x="42.426" y="-309.714" fill="#fff" font-family="Inconsolata" font-size="11" text-anchor="middle">P</text><text x="42.426" y="-298.175" fill="#fff" font-family="Inconsolata" font-size="11" text-anchor="middle">(Stream)</text></g><g id="node3" class="node"><title>s2</title><ellipse cx="190.779" cy="-220.975" fill="#000" stroke="#000" rx="27" ry="18"/><text x="190.779" y="-217.945" fill="#fff" font-family="Inconsolata" font-size="11" text-anchor="middle">p</text></g><g id="edge28" class="edge"><title>s1-&gt;s2</title><path fill="none" stroke="#000" d="M71.0303,-290.3937C97.0904,-275.2867 135.4032,-253.0768 161.6319,-237.8721"/><polygon fill="#000" stroke="#000" points="163.469 -240.852 170.365 -232.809 159.959 -234.797 163.469 -240.852"/><text x="116.603" y="-274.714" fill="#000" font-family="Inconsolata" font-size="11" text-anchor="middle">xform</text></g><g id="node22" class="node"><title>s21</title><ellipse cx="190.779" cy="-392.975" fill="#000" stroke="#000" rx="27" ry="18"/><text x="190.779" y="-389.945" fill="#fff" font-family="Inconsolata" font-size="11" text-anchor="middle">p</text></g><g id="edge29" class="edge"><title>s1-&gt;s21</title><path fill="none" stroke="#000" d="M71.0303,-323.5571C97.0904,-338.6641 135.4032,-360.874 161.6319,-376.0787"/><polygon fill="#000" stroke="#000" points="159.959 -379.154 170.365 -381.142 163.469 -373.098 159.959 -379.154"/><text x="116.603" y="-360.714" fill="#000" font-family="Inconsolata" font-size="11" text-anchor="middle">xform</text></g><g id="node4" class="node"><title>s3</title><ellipse cx="323.706" cy="-166.975" fill="#000" stroke="#000" rx="27" ry="18"/><text x="323.706" y="-163.945" fill="#fff" font-family="Inconsolata" font-size="11" text-anchor="middle">in-p</text></g><g id="edge18" class="edge"><title>s2-&gt;s3</title><path fill="none" stroke="#000" d="M213.9332,-211.5693C235.2458,-202.9113 267.0821,-189.9781 290.9892,-180.2661"/><polygon fill="#000" stroke="#000" points="292.424 -183.461 300.371 -176.455 289.789 -176.976 292.424 -183.461"/><text x="264.956" y="-198.714" fill="#000" font-family="Inconsolata" font-size="11" text-anchor="middle">xform</text></g><g id="node15" class="node"><title>s14</title><ellipse cx="323.706" cy="-220.975" fill="#000" stroke="#000" rx="27" ry="18"/><text x="323.706" y="-217.945" fill="#fff" font-family="Inconsolata" font-size="11" text-anchor="middle">in-p</text></g><g id="edge19" class="edge"><title>s2-&gt;s14</title><path fill="none" stroke="#000" d="M217.9996,-220.9754C237.7125,-220.9754 264.6012,-220.9754 286.3257,-220.9754"/><polygon fill="#000" stroke="#000" points="286.522 -224.476 296.522 -220.975 286.522 -217.476 286.522 -224.476"/><text x="264.956" y="-223.714" fill="#000" font-family="Inconsolata" font-size="11" text-anchor="middle">xform</text></g><g id="node5" class="node"><title>s4</title><ellipse cx="416.876" cy="-166.975" fill="silver" stroke="silver" rx="29.342" ry="18"/><text x="416.876" y="-163.945" fill="#fff" font-family="Inconsolata" font-size="11" text-anchor="middle">&lt;noid&gt;</text></g><g id="edge10" class="edge"><title>s3-&gt;s4</title><path fill="none" stroke="#000" d="M351.1559,-166.9754C359.4122,-166.9754 368.639,-166.9754 377.5081,-166.9754"/><polygon fill="#000" stroke="#000" points="377.676 -170.476 387.676 -166.975 377.676 -163.476 377.676 -170.476"/></g><g id="node6" class="node"><title>s5</title><ellipse cx="567.529" cy="-170.975" fill="red" stroke="red" rx="57.965" ry="21.951"/><text x="567.529" y="-173.714" fill="#fff" font-family="Inconsolata" font-size="11" text-anchor="middle">query-0-raw</text><text x="567.529" y="-162.175" fill="#fff" font-family="Inconsolata" font-size="11" text-anchor="middle">(StreamSync)</text></g><g id="edge9" class="edge"><title>s4-&gt;s5</title><path fill="none" stroke="#000" d="M446.3139,-167.4575C460.0583,-167.7067 476.6405,-168.0416 491.5462,-168.4364 494.0861,-168.5037 496.6737,-168.5752 499.2873,-168.65"/><polygon fill="#000" stroke="#000" points="499.353 -172.153 509.452 -168.952 499.561 -165.156 499.353 -172.153"/><text x="477.796" y="-171.714" fill="#000" font-family="Inconsolata" font-size="11" text-anchor="middle">xform</text></g><g id="node7" class="node"><title>s6</title><ellipse cx="721.456" cy="-170.975" fill="#000" stroke="#000" rx="32.389" ry="18"/><text x="721.456" y="-167.945" fill="#fff" font-family="Inconsolata" font-size="11" text-anchor="middle">xform-1</text></g><g id="edge8" class="edge"><title>s5-&gt;s6</title><path fill="none" stroke="#000" d="M625.7223,-170.9754C643.1818,-170.9754 662.0138,-170.9754 678.3177,-170.9754"/><polygon fill="#000" stroke="#000" points="678.627 -174.476 688.627 -170.975 678.627 -167.476 678.627 -174.476"/><text x="657.262" y="-173.714" fill="#000" font-family="Inconsolata" font-size="11" text-anchor="middle">xform</text></g><g id="node8" class="node"><title>s7</title><ellipse cx="849.845" cy="-170.975" fill="#000" stroke="#000" rx="32.389" ry="18"/><text x="849.845" y="-167.945" fill="#fff" font-family="Inconsolata" font-size="11" text-anchor="middle">query-0</text></g><g id="edge7" class="edge"><title>s6-&gt;s7</title><path fill="none" stroke="#000" d="M754.1865,-170.9754C770.1829,-170.9754 789.6423,-170.9754 806.8232,-170.9754"/><polygon fill="#000" stroke="#000" points="807.175 -174.476 817.175 -170.975 807.175 -167.476 807.175 -174.476"/><text x="785.651" y="-173.714" fill="#000" font-family="Inconsolata" font-size="11" text-anchor="middle">xform</text></g><g id="node9" class="node"><title>s8</title><ellipse cx="972.79" cy="-173.975" fill="#000" stroke="#000" rx="27" ry="18"/><text x="972.79" y="-170.945" fill="#fff" font-family="Inconsolata" font-size="11" text-anchor="middle">in-0</text></g><g id="edge6" class="edge"><title>s7-&gt;s8</title><path fill="none" stroke="#000" d="M882.4694,-171.7715C898.729,-172.1682 918.471,-172.65 935.346,-173.0617"/><polygon fill="#000" stroke="#000" points="935.343 -176.563 945.426 -173.308 935.514 -169.565 935.343 -176.563"/><text x="914.04" y="-175.714" fill="#000" font-family="Inconsolata" font-size="11" text-anchor="middle">xform</text></g><g id="node10" class="node"><title>s9</title><ellipse cx="1065.96" cy="-180.975" fill="silver" stroke="silver" rx="29.342" ry="18"/><text x="1065.96" y="-177.945" fill="#fff" font-family="Inconsolata" font-size="11" text-anchor="middle">&lt;noid&gt;</text></g><g id="edge5" class="edge"><title>s8-&gt;s9</title><path fill="none" stroke="#000" d="M999.7386,-176.0001C1008.173,-176.6338 1017.6585,-177.3464 1026.7584,-178.0301"/><polygon fill="#000" stroke="#000" points="1026.558 -181.525 1036.792 -178.784 1027.082 -174.544 1026.558 -181.525"/></g><g id="node11" class="node"><title>s10</title><ellipse cx="1216.613" cy="-236.975" fill="red" stroke="red" rx="57.965" ry="21.951"/><text x="1216.613" y="-239.714" fill="#fff" font-family="Inconsolata" font-size="11" text-anchor="middle">streamsync-6</text><text x="1216.613" y="-228.175" fill="#fff" font-family="Inconsolata" font-size="11" text-anchor="middle">(StreamSync)</text></g><g id="edge4" class="edge"><title>s9-&gt;s10</title><path fill="none" stroke="#000" d="M1091.1761,-190.3485C1111.4533,-197.8859 1140.5966,-208.7189 1165.6895,-218.0463"/><polygon fill="#000" stroke="#000" points="1164.488 -221.334 1175.081 -221.537 1166.928 -214.772 1164.488 -221.334"/><text x="1126.88" y="-210.714" fill="#000" font-family="Inconsolata" font-size="11" text-anchor="middle">xform</text></g><g id="node12" class="node"><title>s11</title><ellipse cx="1370.541" cy="-236.975" fill="#000" stroke="#000" rx="32.389" ry="18"/><text x="1370.541" y="-233.945" fill="#fff" font-family="Inconsolata" font-size="11" text-anchor="middle">xform-7</text></g><g id="edge3" class="edge"><title>s10-&gt;s11</title><path fill="none" stroke="#000" d="M1274.8066,-236.9754C1292.266,-236.9754 1311.098,-236.9754 1327.4019,-236.9754"/><polygon fill="#000" stroke="#000" points="1327.711 -240.476 1337.711 -236.975 1327.711 -233.476 1327.711 -240.476"/><text x="1306.346" y="-239.714" fill="#000" font-family="Inconsolata" font-size="11" text-anchor="middle">xform</text></g><g id="node13" class="node"><title>s12</title><ellipse cx="1466.985" cy="-236.975" fill="#000" stroke="#000" rx="27" ry="18"/><text x="1466.985" y="-233.945" fill="#fff" font-family="Inconsolata" font-size="11" text-anchor="middle">sub-8</text></g><g id="edge2" class="edge"><title>s11-&gt;s12</title><path fill="none" stroke="#000" d="M1403.1922,-236.9754C1411.6617,-236.9754 1420.849,-236.9754 1429.5435,-236.9754"/><polygon fill="#000" stroke="#000" points="1429.823 -240.476 1439.823 -236.975 1429.823 -233.476 1429.823 -240.476"/></g><g id="node14" class="node"><title>s13</title><ellipse cx="1560.155" cy="-236.975" fill="silver" stroke="silver" rx="29.342" ry="18"/><text x="1560.155" y="-233.945" fill="#fff" font-family="Inconsolata" font-size="11" text-anchor="middle">&lt;noid&gt;</text></g><g id="edge1" class="edge"><title>s12-&gt;s13</title><path fill="none" stroke="#000" d="M1494.4353,-236.9754C1502.6916,-236.9754 1511.9184,-236.9754 1520.7876,-236.9754"/><polygon fill="#000" stroke="#000" points="1520.955 -240.476 1530.955 -236.975 1520.955 -233.476 1520.955 -240.476"/></g><g id="node16" class="node"><title>s15</title><ellipse cx="416.876" cy="-220.975" fill="silver" stroke="silver" rx="29.342" ry="18"/><text x="416.876" y="-217.945" fill="#fff" font-family="Inconsolata" font-size="11" text-anchor="middle">&lt;noid&gt;</text></g><g id="edge17" class="edge"><title>s14-&gt;s15</title><path fill="none" stroke="#000" d="M351.1559,-220.9754C359.4122,-220.9754 368.639,-220.9754 377.5081,-220.9754"/><polygon fill="#000" stroke="#000" points="377.676 -224.476 387.676 -220.975 377.676 -217.476 377.676 -224.476"/></g><g id="node17" class="node"><title>s16</title><ellipse cx="567.529" cy="-236.975" fill="red" stroke="red" rx="57.965" ry="21.951"/><text x="567.529" y="-239.714" fill="#fff" font-family="Inconsolata" font-size="11" text-anchor="middle">query-4-raw</text><text x="567.529" y="-228.175" fill="#fff" font-family="Inconsolata" font-size="11" text-anchor="middle">(StreamSync)</text></g><g id="edge16" class="edge"><title>s15-&gt;s16</title><path fill="none" stroke="#000" d="M445.9234,-224.0604C461.7236,-225.7384 481.9591,-227.8875 501.3702,-229.9491"/><polygon fill="#000" stroke="#000" points="501.104 -233.44 511.418 -231.016 501.844 -226.48 501.104 -233.44"/><text x="477.796" y="-231.714" fill="#000" font-family="Inconsolata" font-size="11" text-anchor="middle">xform</text></g><g id="node18" class="node"><title>s17</title><ellipse cx="721.456" cy="-236.975" fill="#000" stroke="#000" rx="32.389" ry="18"/><text x="721.456" y="-233.945" fill="#fff" font-family="Inconsolata" font-size="11" text-anchor="middle">xform-5</text></g><g id="edge15" class="edge"><title>s16-&gt;s17</title><path fill="none" stroke="#000" d="M625.7223,-236.9754C643.1818,-236.9754 662.0138,-236.9754 678.3177,-236.9754"/><polygon fill="#000" stroke="#000" points="678.627 -240.476 688.627 -236.975 678.627 -233.476 678.627 -240.476"/><text x="657.262" y="-239.714" fill="#000" font-family="Inconsolata" font-size="11" text-anchor="middle">xform</text></g><g id="node19" class="node"><title>s18</title><ellipse cx="849.845" cy="-236.975" fill="#000" stroke="#000" rx="32.389" ry="18"/><text x="849.845" y="-233.945" fill="#fff" font-family="Inconsolata" font-size="11" text-anchor="middle">query-4</text></g><g id="edge14" class="edge"><title>s17-&gt;s18</title><path fill="none" stroke="#000" d="M754.1865,-236.9754C770.1829,-236.9754 789.6423,-236.9754 806.8232,-236.9754"/><polygon fill="#000" stroke="#000" points="807.175 -240.476 817.175 -236.975 807.175 -233.476 807.175 -240.476"/><text x="785.651" y="-239.714" fill="#000" font-family="Inconsolata" font-size="11" text-anchor="middle">xform</text></g><g id="node20" class="node"><title>s19</title><ellipse cx="972.79" cy="-236.975" fill="#000" stroke="#000" rx="27" ry="18"/><text x="972.79" y="-233.945" fill="#fff" font-family="Inconsolata" font-size="11" text-anchor="middle">in-2</text></g><g id="edge13" class="edge"><title>s18-&gt;s19</title><path fill="none" stroke="#000" d="M882.4694,-236.9754C898.729,-236.9754 918.471,-236.9754 935.346,-236.9754"/><polygon fill="#000" stroke="#000" points="935.426 -240.476 945.426 -236.975 935.426 -233.476 935.426 -240.476"/><text x="914.04" y="-239.714" fill="#000" font-family="Inconsolata" font-size="11" text-anchor="middle">xform</text></g><g id="node21" class="node"><title>s20</title><ellipse cx="1065.96" cy="-236.975" fill="silver" stroke="silver" rx="29.342" ry="18"/><text x="1065.96" y="-233.945" fill="#fff" font-family="Inconsolata" font-size="11" text-anchor="middle">&lt;noid&gt;</text></g><g id="edge12" class="edge"><title>s19-&gt;s20</title><path fill="none" stroke="#000" d="M1000.2401,-236.9754C1008.4964,-236.9754 1017.7232,-236.9754 1026.5924,-236.9754"/><polygon fill="#000" stroke="#000" points="1026.76 -240.476 1036.76 -236.975 1026.76 -233.476 1026.76 -240.476"/></g><g id="edge11" class="edge"><title>s20-&gt;s10</title><path fill="none" stroke="#000" d="M1095.3652,-236.9754C1110.5379,-236.9754 1129.7301,-236.9754 1148.3427,-236.9754"/><polygon fill="#000" stroke="#000" points="1148.594 -240.476 1158.594 -236.975 1148.594 -233.476 1148.594 -240.476"/><text x="1126.88" y="-239.714" fill="#000" font-family="Inconsolata" font-size="11" text-anchor="middle">xform</text></g><g id="node23" class="node"><title>s22</title><ellipse cx="323.706" cy="-436.975" fill="#000" stroke="#000" rx="27" ry="18"/><text x="323.706" y="-433.945" fill="#fff" font-family="Inconsolata" font-size="11" text-anchor="middle">in-a</text></g><g id="edge27" class="edge"><title>s21-&gt;s22</title><path fill="none" stroke="#000" d="M215.16,-401.0457C236.1462,-407.9923 266.6417,-418.0867 289.9693,-425.8083"/><polygon fill="#000" stroke="#000" points="288.886 -429.137 299.479 -428.956 291.086 -422.491 288.886 -429.137"/><text x="264.956" y="-424.714" fill="#000" font-family="Inconsolata" font-size="11" text-anchor="middle">xform</text></g><g id="node24" class="node"><title>s23</title><ellipse cx="416.876" cy="-436.975" fill="silver" stroke="silver" rx="29.342" ry="18"/><text x="416.876" y="-433.945" fill="#fff" font-family="Inconsolata" font-size="11" text-anchor="middle">&lt;noid&gt;</text></g><g id="edge26" class="edge"><title>s22-&gt;s23</title><path fill="none" stroke="#000" d="M351.1559,-436.9754C359.4122,-436.9754 368.639,-436.9754 377.5081,-436.9754"/><polygon fill="#000" stroke="#000" points="377.676 -440.476 387.676 -436.975 377.676 -433.476 377.676 -440.476"/></g><g id="node25" class="node"><title>s24</title><ellipse cx="567.529" cy="-382.975" fill="red" stroke="red" rx="57.965" ry="21.951"/><text x="567.529" y="-385.714" fill="#fff" font-family="Inconsolata" font-size="11" text-anchor="middle">query-2-raw</text><text x="567.529" y="-374.175" fill="#fff" font-family="Inconsolata" font-size="11" text-anchor="middle">(StreamSync)</text></g><g id="edge25" class="edge"><title>s23-&gt;s24</title><path fill="none" stroke="#000" d="M442.4322,-427.815C462.4423,-420.6426 490.9337,-410.4302 515.6728,-401.5627"/><polygon fill="#000" stroke="#000" points="517.065 -404.782 525.298 -398.113 514.703 -398.192 517.065 -404.782"/><text x="477.796" y="-422.714" fill="#000" font-family="Inconsolata" font-size="11" text-anchor="middle">xform</text></g><g id="node26" class="node"><title>s25</title><ellipse cx="721.456" cy="-378.975" fill="#000" stroke="#000" rx="32.389" ry="18"/><text x="721.456" y="-375.945" fill="#fff" font-family="Inconsolata" font-size="11" text-anchor="middle">xform-3</text></g><g id="edge24" class="edge"><title>s24-&gt;s25</title><path fill="none" stroke="#000" d="M625.7223,-381.4632C643.1818,-381.0095 662.0138,-380.5201 678.3177,-380.0964"/><polygon fill="#000" stroke="#000" points="678.721 -383.587 688.627 -379.829 678.539 -376.59 678.721 -383.587"/><text x="657.262" y="-383.714" fill="#000" font-family="Inconsolata" font-size="11" text-anchor="middle">xform</text></g><g id="node27" class="node"><title>s26</title><ellipse cx="849.845" cy="-331.975" fill="#000" stroke="#000" rx="32.389" ry="18"/><text x="849.845" y="-328.945" fill="#fff" font-family="Inconsolata" font-size="11" text-anchor="middle">query-2</text></g><g id="edge23" class="edge"><title>s25-&gt;s26</title><path fill="none" stroke="#000" d="M748.6843,-369.0079C767.4084,-362.1535 792.4975,-352.969 813.0052,-345.4617"/><polygon fill="#000" stroke="#000" points="814.469 -348.653 822.657 -341.928 812.063 -342.079 814.469 -348.653"/><text x="785.651" y="-362.714" fill="#000" font-family="Inconsolata" font-size="11" text-anchor="middle">xform</text></g><g id="node28" class="node"><title>s27</title><ellipse cx="972.79" cy="-307.975" fill="#000" stroke="#000" rx="27" ry="18"/><text x="972.79" y="-304.945" fill="#fff" font-family="Inconsolata" font-size="11" text-anchor="middle">in-1</text></g><g id="edge22" class="edge"><title>s26-&gt;s27</title><path fill="none" stroke="#000" d="M880.5523,-325.9811C897.5564,-322.6617 918.792,-318.5163 936.5998,-315.0401"/><polygon fill="#000" stroke="#000" points="937.487 -318.433 946.631 -313.082 936.145 -311.563 937.487 -318.433"/><text x="914.04" y="-325.714" fill="#000" font-family="Inconsolata" font-size="11" text-anchor="middle">xform</text></g><g id="node29" class="node"><title>s28</title><ellipse cx="1065.96" cy="-296.975" fill="silver" stroke="silver" rx="29.342" ry="18"/><text x="1065.96" y="-293.945" fill="#fff" font-family="Inconsolata" font-size="11" text-anchor="middle">&lt;noid&gt;</text></g><g id="edge21" class="edge"><title>s27-&gt;s28</title><path fill="none" stroke="#000" d="M999.7386,-304.7937C1008.2511,-303.7887 1017.8343,-302.6573 1027.0111,-301.5739"/><polygon fill="#000" stroke="#000" points="1027.6 -305.029 1037.121 -300.38 1026.779 -298.077 1027.6 -305.029"/></g><g id="edge20" class="edge"><title>s28-&gt;s10</title><path fill="none" stroke="#000" d="M1090.5005,-287.2018C1111.1277,-278.9867 1141.2652,-266.984 1166.9065,-256.7719"/><polygon fill="#000" stroke="#000" points="1168.489 -259.909 1176.485 -252.957 1165.899 -253.406 1168.489 -259.909"/><text x="1126.88" y="-280.714" fill="#000" font-family="Inconsolata" font-size="11" text-anchor="middle">xform</text></g><g id="node30" class="node"><title>s29</title><ellipse cx="42.426" cy="-83.975" fill="#00f" stroke="#00f" rx="42.353" ry="21.951"/><text x="42.426" y="-86.714" fill="#fff" font-family="Inconsolata" font-size="11" text-anchor="middle">O</text><text x="42.426" y="-75.175" fill="#fff" font-family="Inconsolata" font-size="11" text-anchor="middle">(Stream)</text></g><g id="node31" class="node"><title>s30</title><ellipse cx="190.779" cy="-58.975" fill="#000" stroke="#000" rx="27" ry="18"/><text x="190.779" y="-55.945" fill="#fff" font-family="Inconsolata" font-size="11" text-anchor="middle">o</text></g><g id="edge36" class="edge"><title>s29-&gt;s30</title><path fill="none" stroke="#000" d="M81.004,-74.784C88.2406,-73.2158 95.7598,-71.6907 102.8528,-70.4364 119.3571,-67.518 137.7267,-65.009 153.3898,-63.089"/><polygon fill="#000" stroke="#000" points="154.229 -66.514 163.745 -61.856 153.401 -59.563 154.229 -66.514"/><text x="116.603" y="-73.714" fill="#000" font-family="Inconsolata" font-size="11" text-anchor="middle">xform</text></g><g id="node34" class="node"><title>s33</title><ellipse cx="190.779" cy="-112.975" fill="#000" stroke="#000" rx="27" ry="18"/><text x="190.779" y="-109.945" fill="#fff" font-family="Inconsolata" font-size="11" text-anchor="middle">o</text></g><g id="edge37" class="edge"><title>s29-&gt;s33</title><path fill="none" stroke="#000" d="M82.1822,-91.7469C104.7067,-96.15 132.6721,-101.6166 154.5828,-105.8997"/><polygon fill="#000" stroke="#000" points="154.006 -109.353 164.492 -107.837 155.349 -102.483 154.006 -109.353"/><text x="116.603" y="-104.714" fill="#000" font-family="Inconsolata" font-size="11" text-anchor="middle">xform</text></g><g id="node32" class="node"><title>s31</title><ellipse cx="323.706" cy="-58.975" fill="#000" stroke="#000" rx="27" ry="18"/><text x="323.706" y="-55.945" fill="#fff" font-family="Inconsolata" font-size="11" text-anchor="middle">in-o</text></g><g id="edge32" class="edge"><title>s30-&gt;s31</title><path fill="none" stroke="#000" d="M217.9996,-58.9754C237.7125,-58.9754 264.6012,-58.9754 286.3257,-58.9754"/><polygon fill="#000" stroke="#000" points="286.522 -62.475 296.522 -58.975 286.522 -55.475 286.522 -62.475"/><text x="264.956" y="-61.714" fill="#000" font-family="Inconsolata" font-size="11" text-anchor="middle">xform</text></g><g id="node33" class="node"><title>s32</title><ellipse cx="416.876" cy="-58.975" fill="silver" stroke="silver" rx="29.342" ry="18"/><text x="416.876" y="-55.945" fill="#fff" font-family="Inconsolata" font-size="11" text-anchor="middle">&lt;noid&gt;</text></g><g id="edge31" class="edge"><title>s31-&gt;s32</title><path fill="none" stroke="#000" d="M351.1559,-58.9754C359.4122,-58.9754 368.639,-58.9754 377.5081,-58.9754"/><polygon fill="#000" stroke="#000" points="377.676 -62.475 387.676 -58.975 377.676 -55.475 377.676 -62.475"/></g><g id="edge30" class="edge"><title>s32-&gt;s5</title><path fill="none" stroke="#000" d="M443.5001,-66.6918C458.4198,-71.7624 476.9112,-79.338 491.5462,-89.4364 512.213,-103.6968 531.4512,-124.4511 545.399,-141.4517"/><polygon fill="#000" stroke="#000" points="542.822 -143.833 551.804 -149.451 548.286 -139.457 542.822 -143.833"/><text x="477.796" y="-92.714" fill="#000" font-family="Inconsolata" font-size="11" text-anchor="middle">xform</text></g><g id="node35" class="node"><title>s34</title><ellipse cx="323.706" cy="-112.975" fill="#000" stroke="#000" rx="27" ry="18"/><text x="323.706" y="-109.945" fill="#fff" font-family="Inconsolata" font-size="11" text-anchor="middle">in-o</text></g><g id="edge35" class="edge"><title>s33-&gt;s34</title><path fill="none" stroke="#000" d="M217.9996,-112.9754C237.7125,-112.9754 264.6012,-112.9754 286.3257,-112.9754"/><polygon fill="#000" stroke="#000" points="286.522 -116.475 296.522 -112.975 286.522 -109.475 286.522 -116.475"/><text x="264.956" y="-115.714" fill="#000" font-family="Inconsolata" font-size="11" text-anchor="middle">xform</text></g><g id="node36" class="node"><title>s35</title><ellipse cx="416.876" cy="-112.975" fill="silver" stroke="silver" rx="29.342" ry="18"/><text x="416.876" y="-109.945" fill="#fff" font-family="Inconsolata" font-size="11" text-anchor="middle">&lt;noid&gt;</text></g><g id="edge34" class="edge"><title>s34-&gt;s35</title><path fill="none" stroke="#000" d="M351.1559,-112.9754C359.4122,-112.9754 368.639,-112.9754 377.5081,-112.9754"/><polygon fill="#000" stroke="#000" points="377.676 -116.475 387.676 -112.975 377.676 -109.475 377.676 -116.475"/></g><g id="edge33" class="edge"><title>s35-&gt;s16</title><path fill="none" stroke="#000" d="M443.1541,-121.3665C459.0836,-127.6548 478.7378,-137.7314 491.5462,-152.4364 506.9324,-170.1008 494.669,-183.8804 509.5462,-201.9754 513.14,-206.3464 517.4316,-210.3109 522.0318,-213.8672"/><polygon fill="#000" stroke="#000" points="520.359 -216.968 530.561 -219.827 524.369 -211.231 520.359 -216.968"/><text x="477.796" y="-155.714" fill="#000" font-family="Inconsolata" font-size="11" text-anchor="middle">xform</text></g><g id="node37" class="node"><title>s36</title><ellipse cx="190.779" cy="-328.975" fill="#00f" stroke="#00f" rx="42.353" ry="21.951"/><text x="190.779" y="-331.714" fill="#fff" font-family="Inconsolata" font-size="11" text-anchor="middle">ALL</text><text x="190.779" y="-320.175" fill="#fff" font-family="Inconsolata" font-size="11" text-anchor="middle">(Stream)</text></g><g id="node38" class="node"><title>s37</title><ellipse cx="323.706" cy="-274.975" fill="#000" stroke="#000" rx="27" ry="18"/><text x="323.706" y="-271.945" fill="#fff" font-family="Inconsolata" font-size="11" text-anchor="middle">in-s</text></g><g id="edge44" class="edge"><title>s36-&gt;s37</title><path fill="none" stroke="#000" d="M224.3222,-315.3489C244.8117,-307.0253 270.8857,-296.433 291.1853,-288.1864"/><polygon fill="#000" stroke="#000" points="292.69 -291.353 300.637 -284.347 290.055 -284.868 292.69 -291.353"/><text x="264.956" y="-306.714" fill="#000" font-family="Inconsolata" font-size="11" text-anchor="middle">xform</text></g><g id="node40" class="node"><title>s39</title><ellipse cx="323.706" cy="-382.975" fill="#000" stroke="#000" rx="27" ry="18"/><text x="323.706" y="-379.945" fill="#fff" font-family="Inconsolata" font-size="11" text-anchor="middle">in-b</text></g><g id="edge45" class="edge"><title>s36-&gt;s39</title><path fill="none" stroke="#000" d="M224.3222,-342.6019C244.8117,-350.9255 270.8857,-361.5178 291.1853,-369.7644"/><polygon fill="#000" stroke="#000" points="290.055 -373.083 300.637 -373.604 292.69 -366.598 290.055 -373.083"/><text x="264.956" y="-366.714" fill="#000" font-family="Inconsolata" font-size="11" text-anchor="middle">xform</text></g><g id="node42" class="node"><title>s41</title><ellipse cx="323.706" cy="-328.975" fill="#000" stroke="#000" rx="27" ry="18"/><text x="323.706" y="-325.945" fill="#fff" font-family="Inconsolata" font-size="11" text-anchor="middle">in-s</text></g><g id="edge46" class="edge"><title>s36-&gt;s41</title><path fill="none" stroke="#000" d="M233.5697,-328.9754C250.5039,-328.9754 269.7966,-328.9754 286.1762,-328.9754"/><polygon fill="#000" stroke="#000" points="286.465 -332.476 296.465 -328.975 286.465 -325.476 286.465 -332.476"/><text x="264.956" y="-331.714" fill="#000" font-family="Inconsolata" font-size="11" text-anchor="middle">xform</text></g><g id="node39" class="node"><title>s38</title><ellipse cx="416.876" cy="-274.975" fill="silver" stroke="silver" rx="29.342" ry="18"/><text x="416.876" y="-271.945" fill="#fff" font-family="Inconsolata" font-size="11" text-anchor="middle">&lt;noid&gt;</text></g><g id="edge39" class="edge"><title>s37-&gt;s38</title><path fill="none" stroke="#000" d="M351.1559,-274.9754C359.4122,-274.9754 368.639,-274.9754 377.5081,-274.9754"/><polygon fill="#000" stroke="#000" points="377.676 -278.476 387.676 -274.975 377.676 -271.476 377.676 -278.476"/></g><g id="edge38" class="edge"><title>s38-&gt;s5</title><path fill="none" stroke="#000" d="M434.6004,-260.5123C438.6591,-256.6967 442.7455,-252.4005 446.0462,-247.9754 456.87,-233.4644 450.713,-223.6818 464.0462,-211.4364 476.4001,-200.0905 492.3005,-191.7842 507.9129,-185.7615"/><polygon fill="#000" stroke="#000" points="509.332 -188.971 517.562 -182.3 506.968 -182.382 509.332 -188.971"/><text x="477.796" y="-214.714" fill="#000" font-family="Inconsolata" font-size="11" text-anchor="middle">xform</text></g><g id="node41" class="node"><title>s40</title><ellipse cx="416.876" cy="-382.975" fill="silver" stroke="silver" rx="29.342" ry="18"/><text x="416.876" y="-379.945" fill="#fff" font-family="Inconsolata" font-size="11" text-anchor="middle">&lt;noid&gt;</text></g><g id="edge41" class="edge"><title>s39-&gt;s40</title><path fill="none" stroke="#000" d="M351.1559,-382.9754C359.4122,-382.9754 368.639,-382.9754 377.5081,-382.9754"/><polygon fill="#000" stroke="#000" points="377.676 -386.476 387.676 -382.975 377.676 -379.476 377.676 -386.476"/></g><g id="edge40" class="edge"><title>s40-&gt;s24</title><path fill="none" stroke="#000" d="M446.281,-382.9754C461.4536,-382.9754 480.6459,-382.9754 499.2584,-382.9754"/><polygon fill="#000" stroke="#000" points="499.51 -386.476 509.51 -382.975 499.51 -379.476 499.51 -386.476"/><text x="477.796" y="-385.714" fill="#000" font-family="Inconsolata" font-size="11" text-anchor="middle">xform</text></g><g id="node43" class="node"><title>s42</title><ellipse cx="416.876" cy="-328.975" fill="silver" stroke="silver" rx="29.342" ry="18"/><text x="416.876" y="-325.945" fill="#fff" font-family="Inconsolata" font-size="11" text-anchor="middle">&lt;noid&gt;</text></g><g id="edge43" class="edge"><title>s41-&gt;s42</title><path fill="none" stroke="#000" d="M351.1559,-328.9754C359.4122,-328.9754 368.639,-328.9754 377.5081,-328.9754"/><polygon fill="#000" stroke="#000" points="377.676 -332.476 387.676 -328.975 377.676 -325.476 377.676 -332.476"/></g><g id="edge42" class="edge"><title>s42-&gt;s16</title><path fill="none" stroke="#000" d="M437.8236,-316.1832C461.1236,-301.9545 499.2871,-278.649 528.1999,-260.9927"/><polygon fill="#000" stroke="#000" points="530.139 -263.91 536.849 -255.711 526.49 -257.936 530.139 -263.91"/><text x="477.796" y="-302.714" fill="#000" font-family="Inconsolata" font-size="11" text-anchor="middle">xform</text></g></g></svg>